<?xml version="1.0" encoding="UTF-8"?>
<svg width="19px" height="17px" viewBox="0 0 19 17" version="1.1" xmlns="http://www.w3.org/2000/svg" xmlns:xlink="http://www.w3.org/1999/xlink">
    <!-- Generator: Sketch 56.2 (81672) - https://sketch.com -->
    <title>G Copy 2</title>
    <desc>Created with Sketch.</desc>
    <g id="Page-1" stroke="none" stroke-width="1" fill="none" fill-rule="evenodd">
        <g id="Type—Loud—1-Copy-66" transform="translate(-1412.000000, -66.000000)" stroke="#000000" stroke-width="2">
            <g id="G-Copy-2" transform="translate(1422.000000, 74.500000) scale(-1, 1) rotate(-540.000000) translate(-1422.000000, -74.500000) translate(1413.000000, 67.000000)">
                <path d="M7.66436667,15 C12.0588111,15 15.6212121,11.6421356 15.6212121,7.5 C15.6212121,7.03386226 15.5760969,6.57765673 15.4897578,6.13505126 C15.4321232,5.83959548 15.356119,5.55019997 15.2629026,5.26795577 C14.25489,2.21585665 11.2341613,0 7.66436667,0 C4.17451196,0 1.79331991,1.72913981 0.621212121,3.89047204" id="Oval" transform="translate(8.121212, 7.500000) rotate(-180.000000) translate(-8.121212, -7.500000) "></path>
                <path d="M9,7.5 C12.976072,6.67700007 16,3.44345084 16,-0.5" id="Oval" transform="translate(12.500000, 3.500000) rotate(-90.000000) translate(-12.500000, -3.500000) "></path>
                <path d="M17.6212121,7.5 L9.62121212,7.5" id="Line-2"></path>
            </g>
        </g>
    </g>
</svg>