<?xml version="1.0" encoding="UTF-8"?>
<svg width="29px" height="31px" viewBox="0 0 29 31" version="1.1" xmlns="http://www.w3.org/2000/svg" xmlns:xlink="http://www.w3.org/1999/xlink">
    <!-- Generator: Sketch 56.2 (81672) - https://sketch.com -->
    <title>@</title>
    <desc>Created with Sketch.</desc>
    <defs>
        <path stroke-width="3" d="M1342.70117,27.0746888 L1343.58892,27.0746888 L1338.8965,39.4232365 C1338.64286,40.0521009 1338.44558,40.6452254 1338.30466,41.2026279 C1338.16375,41.7600304 1338.12148,42.2459638 1338.17784,42.6604426 C1338.23421,43.0749214 1338.4033,43.403641 1338.68513,43.6466113 C1338.96696,43.8895817 1339.3897,44.011065 1339.95335,44.011065 C1340.82702,44.011065 1341.74295,43.7252219 1342.70117,43.153527 C1343.65938,42.5818321 1344.54008,41.8029095 1345.34329,40.8167358 C1346.14651,39.8305622 1346.81584,38.6586052 1347.35131,37.3008299 C1347.88679,35.9430545 1348.15452,34.4781084 1348.15452,32.9059474 C1348.15452,31.1336933 1347.83042,29.5043873 1347.18222,28.0179806 C1346.53401,26.5315739 1345.63922,25.2595719 1344.49781,24.2019364 C1343.35641,23.1443008 1341.99661,22.3225018 1340.41837,21.7365145 C1338.84013,21.1505273 1337.13509,20.857538 1335.30321,20.857538 C1333.24586,20.857538 1331.3365,21.2362802 1329.57507,21.9937759 C1327.81365,22.7512717 1326.28475,23.7874531 1324.98834,25.1023513 C1323.69193,26.4172495 1322.67736,27.9536565 1321.94461,29.7116183 C1321.21185,31.46958 1320.84548,33.3632909 1320.84548,35.3928077 C1320.84548,37.822511 1321.23299,39.9591886 1322.00802,41.8029046 C1322.78305,43.6466206 1323.83284,45.1901736 1325.15743,46.43361 C1326.48203,47.6770463 1328.01797,48.6131827 1329.76531,49.242047 C1331.51264,49.8709114 1333.35859,50.1853389 1335.30321,50.1853389 C1336.59962,50.1853389 1337.83964,50.013833 1339.02332,49.670816 C1340.207,49.3277991 1341.32725,48.8490118 1342.38411,48.2344398 C1343.44097,47.6198678 1344.40622,46.8981139 1345.27988,46.0691563 C1346.15355,45.2401987 1346.91448,44.3540849 1347.56268,43.4107884 L1348.53499,43.4107884 C1347.8586,44.5541781 1347.02722,45.5975057 1346.04082,46.5408022 C1345.05442,47.4840988 1343.98348,48.2844596 1342.82799,48.9419087 C1341.67249,49.5993578 1340.4536,50.1067294 1339.17128,50.4640387 C1337.88896,50.821348 1336.59962,51 1335.30321,51 C1333.41496,51 1331.55492,50.6998647 1329.72303,50.0995851 C1327.89115,49.4993054 1326.25657,48.5631691 1324.81924,47.291148 C1323.38192,46.0191269 1322.21939,44.396967 1321.33163,42.4246196 C1320.44387,40.4522723 1320,38.1083584 1320,35.3928077 C1320,33.1631977 1320.4016,31.1122731 1321.20481,29.2399723 C1322.00802,27.3676716 1323.10714,25.7455117 1324.50219,24.373444 C1325.89724,23.0013763 1327.52477,21.9294644 1329.38484,21.1576763 C1331.24491,20.3858883 1333.21768,20 1335.30321,20 C1337.19146,20 1338.96695,20.3001353 1340.62974,20.9004149 C1342.29253,21.5006946 1343.74392,22.358224 1344.98397,23.473029 C1346.22401,24.5878341 1347.20335,25.945589 1347.92201,27.5463347 C1348.64067,29.1470804 1349,30.9336001 1349,32.9059474 C1349,34.5638626 1348.71818,36.1145617 1348.15452,37.5580913 C1347.59086,39.0016209 1346.86516,40.2664768 1345.97741,41.3526971 C1345.08965,42.4389174 1344.10326,43.2964468 1343.01822,43.9253112 C1341.93318,44.5541756 1340.88339,44.868603 1339.8688,44.868603 C1339.0515,44.868603 1338.39626,44.6184903 1337.90306,44.1182573 C1337.40986,43.6180242 1337.23372,42.9677311 1337.37464,42.1673582 L1337.29009,42.1673582 C1336.50097,43.2535785 1335.59208,43.9753325 1334.56341,44.3326418 C1333.53474,44.6899511 1332.52722,44.868603 1331.54082,44.868603 C1330.72351,44.868603 1329.96259,44.7042432 1329.25802,44.3755187 C1328.55345,44.0467941 1327.94752,43.6037372 1327.44023,43.0463347 C1326.93294,42.4889322 1326.53134,41.831493 1326.23542,41.0739972 C1325.9395,40.3165015 1325.79155,39.5089946 1325.79155,38.6514523 C1325.79155,37.3079693 1326.0311,35.9144839 1326.5102,34.4709544 C1326.98931,33.0274248 1327.66569,31.691108 1328.53936,30.461964 C1329.41303,29.23282 1330.46987,28.2252229 1331.70991,27.4391425 C1332.94996,26.653062 1334.3168,26.2600277 1335.8105,26.2600277 C1337.16327,26.2600277 1338.37512,26.5816012 1339.44606,27.224758 C1340.51701,27.8679147 1341.23566,28.7611746 1341.60204,29.9045643 L1341.68659,29.9045643 L1342.70117,27.0746888 Z M1341,30.8832487 C1340.7971,30.1353601 1340.49275,29.5169229 1340.08696,29.0279188 C1339.68116,28.5389146 1339.21015,28.1434025 1338.67391,27.8413706 C1338.13768,27.5393386 1337.57247,27.3236047 1336.97826,27.1941624 C1336.38405,27.0647202 1335.8116,27 1335.26087,27 C1333.89854,27 1332.64493,27.3811299 1331.5,28.143401 C1330.35507,28.9056722 1329.37682,29.8620924 1328.56522,31.0126904 C1327.75362,32.1632883 1327.12319,33.4145448 1326.67391,34.7664975 C1326.22464,36.1184501 1326,37.3984711 1326,38.606599 C1326,39.3832526 1326.13043,40.0951744 1326.3913,40.7423858 C1326.65218,41.3895971 1327.01449,41.9576964 1327.47826,42.4467005 C1327.94203,42.9357046 1328.49275,43.3168345 1329.13043,43.5901015 C1329.76812,43.8633685 1330.46376,44 1331.21739,44 C1331.7971,44 1332.39855,43.9280887 1333.02174,43.784264 C1333.64493,43.6404392 1334.24637,43.3743674 1334.82609,42.9860406 C1335.4058,42.5977138 1335.96377,42.0655702 1336.5,41.3895939 C1337.03623,40.7136176 1337.50724,39.8578732 1337.91304,38.822335 L1341,30.8832487 Z" id="path-1"></path>
    </defs>
    <g id="Page-1" stroke="none" stroke-width="3" fill="none" fill-rule="evenodd">
        <g id="Type—Loud—1" transform="translate(-1320.000000, -20.000000)" fill-rule="nonzero">
            <g id="@">
                <use fill="#FFFFFF" xlink:href="#path-1"></use>
                <use fill="#000000" xlink:href="#path-1"></use>
            </g>
        </g>
    </g>
</svg>