<?xml version="1.0" encoding="UTF-8"?>
<svg width="33px" height="33px" viewBox="0 0 33 33" version="1.1" xmlns="http://www.w3.org/2000/svg" xmlns:xlink="http://www.w3.org/1999/xlink">
    <!-- Generator: Sketch 56.2 (81672) - https://sketch.com -->
    <title>G Copy</title>
    <desc>Created with Sketch.</desc>
    <g id="Page-1" stroke="none" stroke-width="3" fill="none" fill-rule="evenodd">
        <g id="Type—Loud—1" transform="translate(-1391.000000, -19.000000)" stroke="#000000" stroke-width="3">
            <g id="G-Copy" transform="translate(1407.500000, 35.500000) scale(-1, 1) rotate(-180.000000) translate(-1407.500000, -35.500000) translate(1392.000000, 20.000000)">
                <path d="M15.3308884,31 C23.891302,31 30.8308884,24.0604136 30.8308884,15.5 C30.8308884,14.5366487 30.7430037,13.5938239 30.5748144,12.6791059 C30.4625417,12.0684973 30.3144848,11.4704133 30.1328985,10.8871086 C28.1692818,4.57943709 22.2848775,1.77635684e-15 15.3308884,1.77635684e-15 C5.71898329,1.77635684e-15 0.42438489,7.14370067 -2.3501201e-12,13.8553308" id="Oval" transform="translate(15.415444, 15.500000) rotate(-180.000000) translate(-15.415444, -15.500000) "></path>
                <path d="M15.3308884,15.5 C23.891302,15.5 31,8.72952521 31,0.169111587" id="Oval" transform="translate(23.165444, 7.834556) rotate(-90.000000) translate(-23.165444, -7.834556) "></path>
                <path d="M30.8308884,15.6691116 L15.5,15.6691116" id="Line-2" stroke-linecap="square"></path>
            </g>
        </g>
    </g>
</svg>