<?xml version="1.0" encoding="UTF-8"?>
<svg width="64px" height="62px" viewBox="0 0 64 62" version="1.1" xmlns="http://www.w3.org/2000/svg" xmlns:xlink="http://www.w3.org/1999/xlink">
    <!-- Generator: Sketch 63.1 (92452) - https://sketch.com -->
    <title>volume_off-24px</title>
    <desc>Created with Sketch.</desc>
    <g id="Page-1" stroke="none" stroke-width="1" fill="none" fill-rule="evenodd">
        <g id="volume_off-24px" transform="translate(0.000000, -1.000000)" fill="#F0F0F0" fill-rule="nonzero">
            <path d="M2.24,2.24 C0.853333333,3.62666667 0.853333333,5.86666667 2.24,7.25333333 L15.2533333,20.2666667 L14.2222222,21.3333333 L3.55555556,21.3333333 C1.6,21.3333333 0,22.9333333 0,24.8888889 L0,39.1111111 C0,41.0666667 1.6,42.6666667 3.55555556,42.6666667 L14.2222222,42.6666667 L25.92,54.3644444 C28.16,56.6044444 32,55.0044444 32,51.84 L32,37.0133333 L46.8622222,51.8755556 C45.12,53.1911111 43.2355556,54.2933333 41.1733333,55.1111111 C39.8933333,55.6444444 39.1111111,56.9955556 39.1111111,58.3822222 C39.1111111,60.9422222 41.7066667,62.5777778 44.0533333,61.6177778 C46.8977778,60.4444444 49.5644444,58.88 51.9466667,56.96 L56.7111111,61.7244444 C58.0977778,63.1111111 60.3377778,63.1111111 61.7244444,61.7244444 C63.1111111,60.3377778 63.1111111,58.0977778 61.7244444,56.7111111 L7.28888889,2.24 C5.90222222,0.853333333 3.66222222,0.853333333 2.24,2.24 Z M56.8888889,32 C56.8888889,34.9155556 56.3555556,37.7244444 55.4311111,40.32 L60.8711111,45.76 C62.8622222,41.6 64,36.9422222 64,32 C64,18.3822222 55.4666667,6.72 43.4488889,2.13333333 C41.3511111,1.31555556 39.1111111,2.95111111 39.1111111,5.19111111 L39.1111111,5.86666667 C39.1111111,7.21777778 40,8.39111111 41.28,8.88888889 C50.4177778,12.5866667 56.8888889,21.5466667 56.8888889,32 Z M25.92,9.63555556 L25.3155556,10.24 L32,16.9244444 L32,12.1244444 C32,8.96 28.16,7.39555556 25.92,9.63555556 Z M48,32 C48,25.7066667 44.3733333,20.3022222 39.1111111,17.6711111 L39.1111111,24.0355556 L47.9288889,32.8533333 C47.9644444,32.5688889 48,32.2844444 48,32 Z" id="Shape"></path>
        </g>
    </g>
</svg>