<?xml version="1.0" encoding="UTF-8"?>
<svg width="64px" height="57px" viewBox="0 0 64 57" version="1.1" xmlns="http://www.w3.org/2000/svg" xmlns:xlink="http://www.w3.org/1999/xlink">
    <!-- Generator: Sketch 63.1 (92452) - https://sketch.com -->
    <title>volume_up-24px copy 3</title>
    <desc>Created with Sketch.</desc>
    <g id="Page-1" stroke="none" stroke-width="1" fill="none" fill-rule="evenodd">
        <g id="volume_up-24px-copy-3" fill="#F0F0F0" fill-rule="nonzero">
            <path d="M0,20.8271817 L0,34.3176555 C0,36.1725957 1.6,37.690274 3.55555556,37.690274 L14.2222222,37.690274 L25.92,48.7861887 C28.16,50.9109383 32,49.39326 32,46.3916296 L32,8.71948152 C32,5.7178511 28.16,4.2001728 25.92,6.32492242 L14.2222222,17.4545633 L3.55555556,17.4545633 C1.6,17.4545633 0,18.9722416 0,20.8271817 Z M48,27.5721187 C48,21.7087647 44.3733333,16.673568 39.1111111,14.2222222 L39.1111111,40.8888889 C44.3733333,38.4706694 48,33.4354727 48,27.5721187 Z M39.1111111,3.06335112 L39.1111111,3.73585946 C39.1111111,5.0136253 40,6.12326406 41.2444444,6.5940199 C50.4177778,10.0574379 56.8888889,18.5646683 56.8888889,28.4505409 C56.8888889,38.3364135 50.4177778,46.843644 41.2444444,50.307062 C39.9644444,50.7778178 39.1111111,51.8874566 39.1111111,53.1652224 L39.1111111,53.8377308 C39.1111111,55.956132 41.3511111,57.4356504 43.4133333,56.6958912 C55.4666667,52.3582124 64,41.3627011 64,28.4505409 C64,15.5383808 55.4666667,4.54286947 43.4133333,0.205190675 C41.3511111,-0.568193915 39.1111111,0.944949849 39.1111111,3.06335112 Z" id="Shape"></path>
        </g>
    </g>
</svg>